Coordinates
version=1
nRows=13
nColumns=40
inDegrees=yes

Units are S.I. units (second, meters, Newtons, ...)
Angles are in degrees.

endheader
time	pelvis_tilt	pelvis_list	pelvis_rotation	pelvis_tx	pelvis_ty	pelvis_tz	hip_flexion_r	hip_adduction_r	hip_rotation_r	knee_angle_r	knee_angle_r_beta	ankle_angle_r	subtalar_angle_r	mtp_angle_r	hip_flexion_l	hip_adduction_l	hip_rotation_l	knee_angle_l	knee_angle_l_beta	ankle_angle_l	subtalar_angle_l	mtp_angle_l	lumbar_extension	lumbar_bending	lumbar_rotation	arm_flex_r	arm_add_r	arm_rot_r	elbow_flex_r	pro_sup_r	wrist_flex_r	wrist_dev_r	arm_flex_l	arm_add_l	arm_rot_l	elbow_flex_l	pro_sup_l	wrist_flex_l	wrist_dev_l
     23.51000000	     -4.04081590	     -3.89141086	      1.92238940	      0.94205837	      0.91745572	      0.44975105	      0.18734684	     -1.15809512	    -11.85775610	     28.80589831	     28.80589831	     16.18168661	     -5.85986811	     -8.17435426	     27.98083199	     -4.84455820	     -3.43938739	     27.99117449	     27.99117449	      7.69700743	    -14.65270222	      4.28830782	     -6.99176293	      4.00019061	      4.37158810	     22.77697454	    -14.97585479	     -9.38300079	     88.93334423	     44.24535734	      0.00000000	      0.00000000	     -2.45674054	     -8.89688633	      6.26886168	     24.28262705	     45.01609504	      0.00000000	      0.00000000
     23.52200000	     -4.21321875	     -3.73146690	      1.80675941	      0.94219712	      0.91884804	      0.44771153	      1.89655207	     -1.80195071	    -11.67624337	     32.32690044	     32.32690044	     14.90189846	     -7.76701194	     -8.49520623	     27.31173056	     -4.67006246	     -3.97492126	     27.49819481	     27.49819481	      8.18336160	    -14.07937292	      3.91358824	     -6.80963234	      3.74809037	      4.31557691	     21.05790674	    -14.84685770	     -8.94940173	     87.80813006	     44.27206413	      0.00000000	      0.00000000	     -1.11658575	     -9.05075753	      6.18531184	     24.83076200	     45.06078595	      0.00000000	      0.00000000
     23.53400000	     -4.28012610	     -3.70101154	      1.71919429	      0.94220038	      0.92029992	      0.44582731	      3.53852972	     -2.18673101	    -11.36199739	     35.75770160	     35.75770160	     13.34246192	    -10.26234179	     -8.67807127	     26.58427179	     -4.65500150	     -4.47396976	     27.07160830	     27.07160830	      8.56563702	    -13.39264044	      3.20533100	     -6.74064189	      3.67208201	      4.26637414	     19.34742319	    -14.71593236	     -8.36123952	     86.26493705	     44.32488067	      0.00000000	      0.00000000	      0.34821802	     -9.18996651	      6.02869967	     25.40367368	     45.12949399	      0.00000000	      0.00000000
     23.54600000	     -4.29186374	     -3.46599343	      1.65409430	      0.94205097	      0.92166201	      0.44380131	      5.22109529	     -2.97621231	    -11.49165147	     39.35511856	     39.35511856	     12.03846284	    -11.88167137	     -8.58947104	     25.74609044	     -4.37749255	     -4.97676359	     26.54836325	     26.54836325	      8.95589266	    -12.82489451	      2.88754855	     -6.80293008	      3.37969788	      4.01947417	     17.64407598	    -14.30132314	     -7.86486410	     85.18075516	     44.34468841	      0.00000000	      0.00000000	      1.79583038	     -9.41065602	      5.93854197	     26.01809042	     45.17324041	      0.00000000	      0.00000000
     23.55800000	     -4.39053168	     -3.30677759	      1.55647582	      0.94171518	      0.92266981	      0.44195275	      7.08331474	     -3.61766460	    -11.46466963	     42.91517381	     42.91517381	     10.78478167	    -13.71482176	     -8.11563738	     25.03991014	     -4.18820978	     -5.45095888	     26.06340710	     26.06340710	      9.36615326	    -12.24798037	      2.48169577	     -6.76516403	      3.16790816	      3.92278915	     15.90042687	    -14.11144524	     -7.39134837	     83.72498457	     44.37808111	      0.00000000	      0.00000000	      3.26255759	     -9.59488522	      5.82568958	     26.74105406	     45.21995698	      0.00000000	      0.00000000
     23.57000000	     -4.44263781	     -3.27635448	      1.46147329	      0.94122844	      0.92355147	      0.44027690	      9.05082269	     -4.02786413	    -11.27625004	     46.61958990	     46.61958990	     10.83169918	    -14.94531577	     -3.84063387	     24.34077563	     -4.18883824	     -6.01163151	     25.61998573	     25.61998573	      9.37721906	    -11.57158148	      0.98490552	     -6.71172530	      3.09853361	      3.34367638	     14.99594622	    -13.67651409	     -6.33457668	     80.32800641	     44.51779852	      0.00000000	      0.00000000	      4.29104313	     -9.89305779	      5.32481300	     27.96888190	     45.34311705	      0.00000000	      0.00000000
     23.58200000	     -4.48079603	     -3.04411371	      1.37555992	      0.94062149	      0.92424206	      0.43840681	     10.87904175	     -4.80310321	    -11.35142836	     49.85959450	     49.85959450	      9.87744189	    -16.13809273	     -3.37378480	     23.65029540	     -3.88222470	     -6.37693787	     25.23562452	     25.23562452	      9.73363271	    -11.21452184	      0.77972304	     -6.79749634	      2.85854635	      3.29130408	     13.18625500	    -13.54179051	     -5.88178013	     78.99286421	     44.54663251	      0.00000000	      0.00000000	      5.84830578	    -10.08353615	      5.18442063	     28.78810489	     45.39270992	      0.00000000	      0.00000000
     23.59400000	     -4.48772159	     -2.96416043	      1.28724214	      0.93998384	      0.92486733	      0.43676271	     12.78287305	     -5.28262230	    -11.20013406	     53.09331925	     53.09331925	     10.45976627	    -16.57187938	      1.13861747	     22.98124595	     -3.78006353	     -6.76942874	     24.91715174	     24.91715174	      9.96574778	    -10.73612070	      0.05693217	     -6.81489142	      2.77844570	      2.81136029	     12.22540632	    -13.14078259	     -5.14553153	     75.27083751	     44.69184816	      0.00000000	      0.00000000	      7.02921510	    -10.36252533	      4.75865106	     30.10184196	     45.49179679	      0.00000000	      0.00000000
     23.60600000	     -4.48128372	     -2.74988830	      1.17514946	      0.93927129	      0.92539420	      0.43503818	     14.51282123	     -6.00886608	    -11.21314596	     55.72232559	     55.72232559	      9.80046917	    -17.19325006	      1.42501301	     22.31341598	     -3.49037119	     -7.06446078	     24.63701440	     24.63701440	     10.33193320	    -10.47413086	     -0.12823452	     -6.96559002	      2.60320334	      2.86989454	     10.42511951	    -13.06850725	     -4.69258495	     73.75035998	     44.72533170	      0.00000000	      0.00000000	      8.61539165	    -10.53381386	      4.61320046	     30.96387418	     45.53981521	      0.00000000	      0.00000000
     23.61800000	     -4.47027056	     -2.60985156	      1.00977465	      0.93861057	      0.92590473	      0.43349017	     16.22174642	     -6.55346335	    -11.03950924	     58.00057501	     58.00057501	      9.45288737	    -17.50615264	      2.04981876	     21.62292813	     -3.30420132	     -7.39658397	     24.32890261	     24.32890261	     10.67593361	    -10.18418859	     -0.36492179	     -7.06948908	      2.51669725	      3.13610466	      8.72609053	    -13.16619678	     -4.29631469	     71.20968007	     44.79764436	      0.00000000	      0.00000000	     10.22899059	    -10.56706341	      4.47342156	     31.97730084	     45.58674922	      0.00000000	      0.00000000
     23.63000000	     -4.41643921	     -2.48754151	      0.82849657	      0.93798682	      0.92647625	      0.43212193	     17.82721903	     -6.99813822	    -10.77776317	     59.85395302	     59.85395302	      9.21716915	    -17.58800465	      2.59467388	     20.90314871	     -3.14434051	     -7.71711951	     24.05132359	     24.05132359	     11.00890705	     -9.93555306	     -0.60366807	     -7.22473568	      2.45487902	      3.22580766	      7.17272682	    -13.04861324	     -3.91369413	     68.48112613	     44.87613763	      0.00000000	      0.00000000	     11.76883745	    -10.67689155	      4.34736094	     32.92318910	     45.62887580	      0.00000000	      0.00000000
     23.64200000	     -4.34526872	     -2.42844724	      0.60313936	      0.93742346	      0.92710989	      0.43097531	     19.36941691	     -7.26680721	    -10.40991051	     61.28749357	     61.28749357	      9.07131413	    -17.51322441	      3.09844487	     20.12218320	     -3.05286842	     -7.99397972	     23.70268918	     23.70268918	     11.34061642	     -9.69328119	     -0.86625004	     -7.36098173	      2.45938295	      3.47325643	      5.82555564	    -12.96634854	     -3.54771015	     65.00871964	     44.98198503	      0.00000000	      0.00000000	     13.28294228	    -10.73882035	      4.21389016	     33.94466001	     45.67130434	      0.00000000	      0.00000000
     23.65400000	     -4.26000485	     -2.45799796	      0.38243502	      0.93689152	      0.92796218	      0.42999248	     20.79391548	     -7.35863727	    -10.03508032	     62.22192577	     62.22192577	      9.16039094	    -17.12003045	      4.21077759	     19.31383815	     -3.06305336	     -8.29348525	     23.30992083	     23.30992083	     11.44852260	     -9.54774355	     -1.45274786	     -7.42168008	      2.55815145	      2.42185741	      6.50480739	    -12.01942007	     -3.02888717	     57.83244052	     45.23054934	      0.00000000	      0.00000000	     13.98845189	    -11.34328364	      3.83530135	     35.12319427	     45.73765827	      0.00000000	      0.00000000
